<mxfile host="app.diagrams.net" modified="2024-01-01T07:10:52.358Z" agent="Mozilla/5.0 (Macintosh; Intel Mac OS X 10_15_7) AppleWebKit/537.36 (KHTML, like Gecko) Chrome/116.0.0.0 Safari/537.36" etag="QCqr4msiZ75qGVJmEm_e" version="22.1.16" type="device">
  <diagram name="페이지-1" id="xL-gJScPc2c0DAPZp64m">
    <mxGraphModel dx="882" dy="1259" grid="1" gridSize="10" guides="1" tooltips="1" connect="1" arrows="1" fold="1" page="1" pageScale="1" pageWidth="827" pageHeight="1169" math="0" shadow="0">
      <root>
        <mxCell id="0" />
        <mxCell id="1" parent="0" />
        <mxCell id="V7NbF9Kxz37buIu2_OVp-88" value="" style="rounded=1;whiteSpace=wrap;html=1;sketch=1;hachureGap=4;jiggle=2;curveFitting=1;fontFamily=Comic Sans MS;fontSize=20;gradientColor=none;glass=0;shadow=0;arcSize=10;" parent="1" vertex="1">
          <mxGeometry x="73" y="200" width="720" height="680" as="geometry" />
        </mxCell>
        <mxCell id="V7NbF9Kxz37buIu2_OVp-1" value="&lt;i style=&quot;font-size: 14px;&quot;&gt;Default&lt;/i&gt;" style="ellipse;whiteSpace=wrap;html=1;fontSize=14;strokeWidth=2;fillColor=#E6E6E6;sketch=1;curveFitting=1;jiggle=2;shadow=0;fontFamily=Comic Sans MS;" parent="1" vertex="1">
          <mxGeometry x="240" y="480" width="80" height="80" as="geometry" />
        </mxCell>
        <mxCell id="V7NbF9Kxz37buIu2_OVp-2" value="" style="endArrow=classic;html=1;rounded=0;entryX=0;entryY=0.5;entryDx=0;entryDy=0;fontSize=14;strokeWidth=2;sketch=1;curveFitting=1;jiggle=2;shadow=0;fontFamily=Comic Sans MS;" parent="1" target="V7NbF9Kxz37buIu2_OVp-1" edge="1">
          <mxGeometry width="50" height="50" relative="1" as="geometry">
            <mxPoint x="140" y="520" as="sourcePoint" />
            <mxPoint x="570" y="550" as="targetPoint" />
          </mxGeometry>
        </mxCell>
        <mxCell id="V7NbF9Kxz37buIu2_OVp-5" value="" style="endArrow=classic;html=1;rounded=0;entryX=0.5;entryY=1;entryDx=0;entryDy=0;exitX=1;exitY=0;exitDx=0;exitDy=0;curved=1;fontSize=14;strokeWidth=2;sketch=1;curveFitting=1;jiggle=2;shadow=0;fontFamily=Comic Sans MS;" parent="1" source="V7NbF9Kxz37buIu2_OVp-1" target="V7NbF9Kxz37buIu2_OVp-6" edge="1">
          <mxGeometry width="50" height="50" relative="1" as="geometry">
            <mxPoint x="400" y="480" as="sourcePoint" />
            <mxPoint x="480" y="520" as="targetPoint" />
            <Array as="points">
              <mxPoint x="380" y="470" />
            </Array>
          </mxGeometry>
        </mxCell>
        <mxCell id="V7NbF9Kxz37buIu2_OVp-6" value="&lt;i style=&quot;font-size: 14px;&quot;&gt;Word&lt;/i&gt;" style="ellipse;whiteSpace=wrap;html=1;fontSize=14;strokeWidth=2;fillColor=#E6E6E6;sketch=1;curveFitting=1;jiggle=2;shadow=0;fontFamily=Comic Sans MS;" parent="1" vertex="1">
          <mxGeometry x="340" y="310" width="80" height="80" as="geometry" />
        </mxCell>
        <mxCell id="V7NbF9Kxz37buIu2_OVp-12" value="" style="curved=1;endArrow=classic;html=1;rounded=0;exitX=1;exitY=0.5;exitDx=0;exitDy=0;entryX=1;entryY=0;entryDx=0;entryDy=0;fontSize=14;strokeWidth=2;sketch=1;curveFitting=1;jiggle=2;shadow=0;fontFamily=Comic Sans MS;strokeColor=#004DFF;" parent="1" source="V7NbF9Kxz37buIu2_OVp-6" target="V7NbF9Kxz37buIu2_OVp-6" edge="1">
          <mxGeometry width="50" height="50" relative="1" as="geometry">
            <mxPoint x="380" y="290" as="sourcePoint" />
            <mxPoint x="430" y="240" as="targetPoint" />
            <Array as="points">
              <mxPoint x="460" y="310" />
              <mxPoint x="440" y="290" />
            </Array>
          </mxGeometry>
        </mxCell>
        <mxCell id="V7NbF9Kxz37buIu2_OVp-13" value="non-meta &amp;amp; non-space &amp;amp; non-quotes" style="text;strokeColor=none;align=left;fillColor=none;html=1;verticalAlign=middle;whiteSpace=wrap;rounded=0;fontColor=#004DFF;labelBackgroundColor=default;fontSize=14;strokeWidth=2;sketch=1;curveFitting=1;jiggle=2;shadow=0;fontFamily=Comic Sans MS;" parent="1" vertex="1">
          <mxGeometry x="456" y="300" width="244" height="20" as="geometry" />
        </mxCell>
        <mxCell id="V7NbF9Kxz37buIu2_OVp-14" value="" style="endArrow=classic;html=1;rounded=0;entryX=0.5;entryY=0;entryDx=0;entryDy=0;exitX=0;exitY=0.5;exitDx=0;exitDy=0;curved=1;fontSize=14;strokeWidth=2;sketch=1;curveFitting=1;jiggle=2;shadow=0;fontFamily=Comic Sans MS;" parent="1" source="V7NbF9Kxz37buIu2_OVp-6" target="V7NbF9Kxz37buIu2_OVp-1" edge="1">
          <mxGeometry width="50" height="50" relative="1" as="geometry">
            <mxPoint x="330" y="530" as="sourcePoint" />
            <mxPoint x="460" y="410" as="targetPoint" />
            <Array as="points">
              <mxPoint x="270" y="370" />
            </Array>
          </mxGeometry>
        </mxCell>
        <mxCell id="V7NbF9Kxz37buIu2_OVp-15" value="meta, space" style="text;strokeColor=none;align=left;fillColor=none;html=1;verticalAlign=middle;whiteSpace=wrap;rounded=0;fontColor=#000000;labelBackgroundColor=default;fontSize=14;strokeWidth=2;sketch=1;curveFitting=1;jiggle=2;shadow=0;fontFamily=Comic Sans MS;" parent="1" vertex="1">
          <mxGeometry x="240" y="390" width="90" height="20" as="geometry" />
        </mxCell>
        <mxCell id="V7NbF9Kxz37buIu2_OVp-16" value="non-meta&lt;br&gt;&amp;amp; non-space" style="text;strokeColor=none;align=left;fillColor=none;html=1;verticalAlign=middle;whiteSpace=wrap;rounded=0;fontColor=#000000;labelBackgroundColor=default;fontSize=14;strokeWidth=2;sketch=1;curveFitting=1;jiggle=2;shadow=0;fontFamily=Comic Sans MS;" parent="1" vertex="1">
          <mxGeometry x="320" y="440" width="80" height="20" as="geometry" />
        </mxCell>
        <mxCell id="V7NbF9Kxz37buIu2_OVp-19" value="" style="endArrow=classic;html=1;rounded=0;exitX=0.5;exitY=1;exitDx=0;exitDy=0;entryX=0.5;entryY=0;entryDx=0;entryDy=0;fontSize=14;strokeWidth=2;sketch=1;curveFitting=1;jiggle=2;shadow=0;fontFamily=Comic Sans MS;" parent="1" source="V7NbF9Kxz37buIu2_OVp-1" target="V7NbF9Kxz37buIu2_OVp-20" edge="1">
          <mxGeometry width="50" height="50" relative="1" as="geometry">
            <mxPoint x="320" y="630" as="sourcePoint" />
            <mxPoint x="280" y="680" as="targetPoint" />
          </mxGeometry>
        </mxCell>
        <mxCell id="V7NbF9Kxz37buIu2_OVp-20" value="&lt;i style=&quot;font-size: 14px;&quot;&gt;Meta&lt;/i&gt;" style="ellipse;whiteSpace=wrap;html=1;fontSize=14;strokeWidth=2;fillColor=#E6E6E6;sketch=1;curveFitting=1;jiggle=2;shadow=0;fontFamily=Comic Sans MS;" parent="1" vertex="1">
          <mxGeometry x="240" y="730" width="80" height="80" as="geometry" />
        </mxCell>
        <mxCell id="V7NbF9Kxz37buIu2_OVp-21" value="&lt;i style=&quot;font-size: 14px;&quot;&gt;&amp;lt;&lt;/i&gt;" style="ellipse;whiteSpace=wrap;html=1;fontSize=14;strokeWidth=2;fillColor=#E6E6E6;sketch=1;curveFitting=1;jiggle=2;shadow=0;fontFamily=Comic Sans MS;" parent="1" vertex="1">
          <mxGeometry x="150" y="700" width="50" height="50" as="geometry" />
        </mxCell>
        <mxCell id="V7NbF9Kxz37buIu2_OVp-22" value="&lt;i style=&quot;font-size: 14px;&quot;&gt;&amp;amp;&lt;/i&gt;" style="ellipse;whiteSpace=wrap;html=1;fontSize=14;strokeWidth=2;fillColor=#E6E6E6;sketch=1;curveFitting=1;jiggle=2;shadow=0;fontFamily=Comic Sans MS;" parent="1" vertex="1">
          <mxGeometry x="110" y="780" width="50" height="50" as="geometry" />
        </mxCell>
        <mxCell id="V7NbF9Kxz37buIu2_OVp-23" value="&lt;i style=&quot;font-size: 14px;&quot;&gt;&amp;gt;&lt;/i&gt;" style="ellipse;whiteSpace=wrap;html=1;fontSize=14;strokeWidth=2;fillColor=#E6E6E6;sketch=1;curveFitting=1;jiggle=2;shadow=0;fontFamily=Comic Sans MS;" parent="1" vertex="1">
          <mxGeometry x="360" y="700" width="50" height="50" as="geometry" />
        </mxCell>
        <mxCell id="V7NbF9Kxz37buIu2_OVp-24" value="&lt;i style=&quot;font-size: 14px;&quot;&gt;|&lt;/i&gt;" style="ellipse;whiteSpace=wrap;html=1;fontSize=14;strokeWidth=2;fillColor=#E6E6E6;sketch=1;curveFitting=1;jiggle=2;shadow=0;fontFamily=Comic Sans MS;" parent="1" vertex="1">
          <mxGeometry x="400" y="780" width="50" height="50" as="geometry" />
        </mxCell>
        <mxCell id="V7NbF9Kxz37buIu2_OVp-28" value="" style="endArrow=classic;html=1;rounded=0;entryX=0;entryY=1;entryDx=0;entryDy=0;exitX=0.5;exitY=0;exitDx=0;exitDy=0;curved=1;fontSize=14;strokeWidth=2;sketch=1;curveFitting=1;jiggle=2;shadow=0;fontFamily=Comic Sans MS;strokeColor=#004DFF;" parent="1" source="V7NbF9Kxz37buIu2_OVp-21" target="V7NbF9Kxz37buIu2_OVp-1" edge="1">
          <mxGeometry width="50" height="50" relative="1" as="geometry">
            <mxPoint x="330" y="530" as="sourcePoint" />
            <mxPoint x="422" y="438" as="targetPoint" />
            <Array as="points">
              <mxPoint x="170" y="580" />
            </Array>
          </mxGeometry>
        </mxCell>
        <mxCell id="V7NbF9Kxz37buIu2_OVp-29" value="" style="endArrow=classic;html=1;rounded=0;entryX=0;entryY=1;entryDx=0;entryDy=0;exitX=0;exitY=0;exitDx=0;exitDy=0;curved=1;fontSize=14;strokeWidth=2;sketch=1;curveFitting=1;jiggle=2;shadow=0;fontFamily=Comic Sans MS;strokeColor=#004DFF;" parent="1" source="V7NbF9Kxz37buIu2_OVp-22" target="V7NbF9Kxz37buIu2_OVp-1" edge="1">
          <mxGeometry width="50" height="50" relative="1" as="geometry">
            <mxPoint x="133" y="710" as="sourcePoint" />
            <mxPoint x="170" y="608" as="targetPoint" />
            <Array as="points">
              <mxPoint x="110" y="570" />
            </Array>
          </mxGeometry>
        </mxCell>
        <mxCell id="V7NbF9Kxz37buIu2_OVp-30" value="" style="endArrow=classic;html=1;rounded=0;exitX=0.5;exitY=0;exitDx=0;exitDy=0;curved=1;entryX=1;entryY=1;entryDx=0;entryDy=0;fontSize=14;strokeWidth=2;sketch=1;curveFitting=1;jiggle=2;shadow=0;fontFamily=Comic Sans MS;strokeColor=#004DFF;" parent="1" source="V7NbF9Kxz37buIu2_OVp-23" target="V7NbF9Kxz37buIu2_OVp-1" edge="1">
          <mxGeometry width="50" height="50" relative="1" as="geometry">
            <mxPoint x="333" y="650" as="sourcePoint" />
            <mxPoint x="370" y="548" as="targetPoint" />
            <Array as="points">
              <mxPoint x="400" y="590" />
            </Array>
          </mxGeometry>
        </mxCell>
        <mxCell id="V7NbF9Kxz37buIu2_OVp-31" value="" style="endArrow=classic;html=1;rounded=0;exitX=1;exitY=0;exitDx=0;exitDy=0;curved=1;fontSize=14;strokeWidth=2;sketch=1;curveFitting=1;jiggle=2;shadow=0;fontFamily=Comic Sans MS;strokeColor=#004DFF;" parent="1" source="V7NbF9Kxz37buIu2_OVp-24" edge="1">
          <mxGeometry width="50" height="50" relative="1" as="geometry">
            <mxPoint x="387" y="710" as="sourcePoint" />
            <mxPoint x="310" y="550" as="targetPoint" />
            <Array as="points">
              <mxPoint x="450" y="570" />
            </Array>
          </mxGeometry>
        </mxCell>
        <mxCell id="V7NbF9Kxz37buIu2_OVp-32" value="" style="endArrow=classic;html=1;rounded=0;entryX=1;entryY=0.5;entryDx=0;entryDy=0;exitX=0;exitY=0.5;exitDx=0;exitDy=0;fontSize=14;strokeWidth=2;sketch=1;curveFitting=1;jiggle=2;shadow=0;fontFamily=Comic Sans MS;strokeColor=#004DFF;" parent="1" source="V7NbF9Kxz37buIu2_OVp-20" target="V7NbF9Kxz37buIu2_OVp-21" edge="1">
          <mxGeometry width="50" height="50" relative="1" as="geometry">
            <mxPoint x="160" y="540" as="sourcePoint" />
            <mxPoint x="250" y="540" as="targetPoint" />
          </mxGeometry>
        </mxCell>
        <mxCell id="V7NbF9Kxz37buIu2_OVp-33" value="" style="endArrow=classic;html=1;rounded=0;entryX=1;entryY=0.5;entryDx=0;entryDy=0;exitX=0;exitY=0.5;exitDx=0;exitDy=0;fontSize=14;strokeWidth=2;sketch=1;curveFitting=1;jiggle=2;shadow=0;fontFamily=Comic Sans MS;strokeColor=#004DFF;" parent="1" source="V7NbF9Kxz37buIu2_OVp-20" target="V7NbF9Kxz37buIu2_OVp-22" edge="1">
          <mxGeometry width="50" height="50" relative="1" as="geometry">
            <mxPoint x="262" y="722" as="sourcePoint" />
            <mxPoint x="250" y="695" as="targetPoint" />
          </mxGeometry>
        </mxCell>
        <mxCell id="V7NbF9Kxz37buIu2_OVp-34" value="" style="endArrow=classic;html=1;rounded=0;entryX=0;entryY=0.5;entryDx=0;entryDy=0;exitX=1;exitY=0.5;exitDx=0;exitDy=0;fontSize=14;strokeWidth=2;sketch=1;curveFitting=1;jiggle=2;shadow=0;fontFamily=Comic Sans MS;strokeColor=#004DFF;" parent="1" source="V7NbF9Kxz37buIu2_OVp-20" target="V7NbF9Kxz37buIu2_OVp-23" edge="1">
          <mxGeometry width="50" height="50" relative="1" as="geometry">
            <mxPoint x="272" y="732" as="sourcePoint" />
            <mxPoint x="260" y="705" as="targetPoint" />
          </mxGeometry>
        </mxCell>
        <mxCell id="V7NbF9Kxz37buIu2_OVp-35" value="" style="endArrow=classic;html=1;rounded=0;entryX=0;entryY=0.5;entryDx=0;entryDy=0;exitX=1;exitY=0.5;exitDx=0;exitDy=0;fontSize=14;strokeWidth=2;sketch=1;curveFitting=1;jiggle=2;shadow=0;fontFamily=Comic Sans MS;strokeColor=#004DFF;" parent="1" source="V7NbF9Kxz37buIu2_OVp-20" target="V7NbF9Kxz37buIu2_OVp-24" edge="1">
          <mxGeometry width="50" height="50" relative="1" as="geometry">
            <mxPoint x="318" y="722" as="sourcePoint" />
            <mxPoint x="337" y="713" as="targetPoint" />
          </mxGeometry>
        </mxCell>
        <mxCell id="V7NbF9Kxz37buIu2_OVp-37" value="|,&lt;br style=&quot;font-size: 14px;&quot;&gt;λ" style="text;strokeColor=none;align=left;fillColor=none;html=1;verticalAlign=middle;whiteSpace=wrap;rounded=0;fontColor=#004DFF;labelBackgroundColor=default;fontSize=14;strokeWidth=2;sketch=1;curveFitting=1;jiggle=2;shadow=0;fontFamily=Comic Sans MS;" parent="1" vertex="1">
          <mxGeometry x="440" y="730" width="90" height="40" as="geometry" />
        </mxCell>
        <mxCell id="V7NbF9Kxz37buIu2_OVp-40" value="" style="endArrow=classic;html=1;rounded=0;entryX=0;entryY=1;entryDx=0;entryDy=0;exitX=0;exitY=0;exitDx=0;exitDy=0;curved=1;fontSize=14;strokeWidth=2;sketch=1;curveFitting=1;jiggle=2;shadow=0;fontFamily=Comic Sans MS;strokeColor=#004DFF;" parent="1" source="V7NbF9Kxz37buIu2_OVp-20" target="V7NbF9Kxz37buIu2_OVp-1" edge="1">
          <mxGeometry width="50" height="50" relative="1" as="geometry">
            <mxPoint x="127" y="787" as="sourcePoint" />
            <mxPoint x="262" y="558" as="targetPoint" />
            <Array as="points">
              <mxPoint x="220" y="650" />
            </Array>
          </mxGeometry>
        </mxCell>
        <mxCell id="V7NbF9Kxz37buIu2_OVp-41" value="" style="endArrow=classic;html=1;rounded=0;entryX=1;entryY=1;entryDx=0;entryDy=0;exitX=1;exitY=0;exitDx=0;exitDy=0;curved=1;fontSize=14;strokeWidth=2;sketch=1;curveFitting=1;jiggle=2;shadow=0;fontFamily=Comic Sans MS;strokeColor=#004DFF;" parent="1" source="V7NbF9Kxz37buIu2_OVp-20" target="V7NbF9Kxz37buIu2_OVp-1" edge="1">
          <mxGeometry width="50" height="50" relative="1" as="geometry">
            <mxPoint x="262" y="742" as="sourcePoint" />
            <mxPoint x="262" y="558" as="targetPoint" />
            <Array as="points">
              <mxPoint x="340" y="660" />
            </Array>
          </mxGeometry>
        </mxCell>
        <mxCell id="V7NbF9Kxz37buIu2_OVp-42" value="&amp;amp;,&lt;br style=&quot;font-size: 14px;&quot;&gt;λ" style="text;strokeColor=none;align=left;fillColor=none;html=1;verticalAlign=middle;whiteSpace=wrap;rounded=0;fontColor=#004DFF;labelBackgroundColor=default;fontSize=14;strokeWidth=2;sketch=1;curveFitting=1;jiggle=2;shadow=0;fontFamily=Comic Sans MS;" parent="1" vertex="1">
          <mxGeometry x="110" y="740" width="90" height="40" as="geometry" />
        </mxCell>
        <mxCell id="V7NbF9Kxz37buIu2_OVp-44" value="&amp;lt;,&lt;br style=&quot;font-size: 14px;&quot;&gt;λ" style="text;strokeColor=none;align=left;fillColor=none;html=1;verticalAlign=middle;whiteSpace=wrap;rounded=0;fontColor=#004DFF;labelBackgroundColor=default;fontSize=14;strokeWidth=2;sketch=1;curveFitting=1;jiggle=2;shadow=0;fontFamily=Comic Sans MS;" parent="1" vertex="1">
          <mxGeometry x="170" y="650" width="90" height="40" as="geometry" />
        </mxCell>
        <mxCell id="V7NbF9Kxz37buIu2_OVp-45" value="&amp;gt;,&lt;br style=&quot;font-size: 14px;&quot;&gt;λ" style="text;strokeColor=none;align=left;fillColor=none;html=1;verticalAlign=middle;whiteSpace=wrap;rounded=0;fontColor=#004DFF;labelBackgroundColor=default;fontSize=14;strokeWidth=2;sketch=1;curveFitting=1;jiggle=2;shadow=0;fontFamily=Comic Sans MS;" parent="1" vertex="1">
          <mxGeometry x="380" y="650" width="90" height="40" as="geometry" />
        </mxCell>
        <mxCell id="V7NbF9Kxz37buIu2_OVp-46" value="(" style="text;strokeColor=none;align=left;fillColor=none;html=1;verticalAlign=middle;whiteSpace=wrap;rounded=0;fontColor=#004DFF;labelBackgroundColor=default;fontSize=14;strokeWidth=2;sketch=1;curveFitting=1;jiggle=2;shadow=0;fontFamily=Comic Sans MS;" parent="1" vertex="1">
          <mxGeometry x="230" y="690" width="30" height="40" as="geometry" />
        </mxCell>
        <mxCell id="V7NbF9Kxz37buIu2_OVp-47" value=")" style="text;strokeColor=none;align=left;fillColor=none;html=1;verticalAlign=middle;whiteSpace=wrap;rounded=0;fontColor=#004DFF;labelBackgroundColor=default;fontSize=14;strokeWidth=2;sketch=1;curveFitting=1;jiggle=2;shadow=0;fontFamily=Comic Sans MS;" parent="1" vertex="1">
          <mxGeometry x="320" y="690" width="20" height="40" as="geometry" />
        </mxCell>
        <mxCell id="V7NbF9Kxz37buIu2_OVp-48" value="&lt;span style=&quot;font-size: 14px; font-style: normal; font-variant-ligatures: normal; font-variant-caps: normal; font-weight: 400; letter-spacing: normal; orphans: 2; text-indent: 0px; text-transform: none; widows: 2; word-spacing: 0px; -webkit-text-stroke-width: 0px; background-color: rgb(251, 251, 251); text-decoration-thickness: initial; text-decoration-style: initial; text-decoration-color: initial; float: none; display: inline !important;&quot;&gt;meta&lt;/span&gt;" style="text;whiteSpace=wrap;html=1;align=center;fontSize=14;strokeWidth=2;fontColor=#000000;sketch=1;curveFitting=1;jiggle=2;shadow=0;fontFamily=Comic Sans MS;" parent="1" vertex="1">
          <mxGeometry x="250" y="610" width="60" height="40" as="geometry" />
        </mxCell>
        <mxCell id="V7NbF9Kxz37buIu2_OVp-49" value="&amp;amp;" style="text;strokeColor=none;align=left;fillColor=none;html=1;verticalAlign=middle;whiteSpace=wrap;rounded=0;fontColor=#004DFF;labelBackgroundColor=default;fontSize=14;strokeWidth=2;sketch=1;curveFitting=1;jiggle=2;shadow=0;fontFamily=Comic Sans MS;" parent="1" vertex="1">
          <mxGeometry x="200" y="770" width="90" height="40" as="geometry" />
        </mxCell>
        <mxCell id="V7NbF9Kxz37buIu2_OVp-50" value="|" style="text;strokeColor=none;align=left;fillColor=none;html=1;verticalAlign=middle;whiteSpace=wrap;rounded=0;fontColor=#004DFF;labelBackgroundColor=default;fontSize=14;strokeWidth=2;sketch=1;curveFitting=1;jiggle=2;shadow=0;fontFamily=Comic Sans MS;" parent="1" vertex="1">
          <mxGeometry x="350" y="770" width="90" height="40" as="geometry" />
        </mxCell>
        <mxCell id="V7NbF9Kxz37buIu2_OVp-52" value="&amp;lt;" style="text;strokeColor=none;align=left;fillColor=none;html=1;verticalAlign=middle;whiteSpace=wrap;rounded=0;fontColor=#004DFF;labelBackgroundColor=default;fontSize=14;strokeWidth=2;sketch=1;curveFitting=1;jiggle=2;shadow=0;fontFamily=Comic Sans MS;" parent="1" vertex="1">
          <mxGeometry x="220" y="730" width="90" height="40" as="geometry" />
        </mxCell>
        <mxCell id="V7NbF9Kxz37buIu2_OVp-53" value="&amp;gt;" style="text;strokeColor=none;align=left;fillColor=none;html=1;verticalAlign=middle;whiteSpace=wrap;rounded=0;fontColor=#004DFF;labelBackgroundColor=default;fontSize=14;strokeWidth=2;sketch=1;curveFitting=1;jiggle=2;shadow=0;fontFamily=Comic Sans MS;" parent="1" vertex="1">
          <mxGeometry x="330" y="730" width="90" height="40" as="geometry" />
        </mxCell>
        <mxCell id="V7NbF9Kxz37buIu2_OVp-55" value="&lt;i style=&quot;font-size: 14px;&quot;&gt;Quotes&lt;/i&gt;" style="ellipse;whiteSpace=wrap;html=1;fontSize=14;strokeWidth=2;fillColor=#E6E6E6;sketch=1;curveFitting=1;jiggle=2;shadow=0;fontFamily=Comic Sans MS;" parent="1" vertex="1">
          <mxGeometry x="479" y="550" width="80" height="80" as="geometry" />
        </mxCell>
        <mxCell id="V7NbF9Kxz37buIu2_OVp-57" value="" style="endArrow=classic;html=1;rounded=0;curved=1;entryX=0.031;entryY=0.319;entryDx=0;entryDy=0;entryPerimeter=0;fontSize=14;strokeWidth=2;sketch=1;curveFitting=1;jiggle=2;shadow=0;fontFamily=Comic Sans MS;exitX=0.739;exitY=0.932;exitDx=0;exitDy=0;exitPerimeter=0;" parent="1" source="V7NbF9Kxz37buIu2_OVp-6" target="V7NbF9Kxz37buIu2_OVp-55" edge="1">
          <mxGeometry width="50" height="50" relative="1" as="geometry">
            <mxPoint x="420" y="490" as="sourcePoint" />
            <mxPoint x="370" y="533" as="targetPoint" />
            <Array as="points">
              <mxPoint x="420" y="590" />
            </Array>
          </mxGeometry>
        </mxCell>
        <mxCell id="V7NbF9Kxz37buIu2_OVp-61" value="&lt;i style=&quot;font-size: 14px;&quot;&gt;&#39;&lt;/i&gt;" style="ellipse;whiteSpace=wrap;html=1;fontSize=14;strokeWidth=2;fillColor=#E6E6E6;sketch=1;curveFitting=1;jiggle=2;shadow=0;fontFamily=Comic Sans MS;" parent="1" vertex="1">
          <mxGeometry x="550" y="670" width="50" height="50" as="geometry" />
        </mxCell>
        <mxCell id="V7NbF9Kxz37buIu2_OVp-62" value="&lt;i style=&quot;font-size: 14px;&quot;&gt;&quot;&lt;/i&gt;" style="ellipse;whiteSpace=wrap;html=1;fontSize=14;strokeWidth=2;fillColor=#E6E6E6;sketch=1;curveFitting=1;jiggle=2;shadow=0;fontFamily=Comic Sans MS;" parent="1" vertex="1">
          <mxGeometry x="640" y="540" width="50" height="50" as="geometry" />
        </mxCell>
        <mxCell id="V7NbF9Kxz37buIu2_OVp-63" value="" style="endArrow=classic;html=1;rounded=0;exitX=0.5;exitY=1;exitDx=0;exitDy=0;curved=1;entryX=0;entryY=0;entryDx=0;entryDy=0;fontSize=14;strokeWidth=2;sketch=1;curveFitting=1;jiggle=2;shadow=0;fontFamily=Comic Sans MS;strokeColor=#004DFF;" parent="1" source="V7NbF9Kxz37buIu2_OVp-55" target="V7NbF9Kxz37buIu2_OVp-61" edge="1">
          <mxGeometry width="50" height="50" relative="1" as="geometry">
            <mxPoint x="560" y="628" as="sourcePoint" />
            <mxPoint x="738" y="666" as="targetPoint" />
            <Array as="points">
              <mxPoint x="510" y="660" />
            </Array>
          </mxGeometry>
        </mxCell>
        <mxCell id="V7NbF9Kxz37buIu2_OVp-64" value="" style="endArrow=classic;html=1;rounded=0;exitX=0;exitY=1;exitDx=0;exitDy=0;curved=1;entryX=0.5;entryY=1;entryDx=0;entryDy=0;fontSize=14;strokeWidth=2;sketch=1;curveFitting=1;jiggle=2;shadow=0;fontFamily=Comic Sans MS;strokeColor=#004DFF;" parent="1" source="V7NbF9Kxz37buIu2_OVp-61" target="V7NbF9Kxz37buIu2_OVp-61" edge="1">
          <mxGeometry width="50" height="50" relative="1" as="geometry">
            <mxPoint x="518" y="751.5" as="sourcePoint" />
            <mxPoint x="541" y="808.5" as="targetPoint" />
            <Array as="points">
              <mxPoint x="530" y="800" />
            </Array>
          </mxGeometry>
        </mxCell>
        <mxCell id="V7NbF9Kxz37buIu2_OVp-65" value="any(not &#39;)" style="text;strokeColor=none;align=left;fillColor=none;html=1;verticalAlign=middle;whiteSpace=wrap;rounded=0;fontColor=#004DFF;labelBackgroundColor=default;fontSize=14;strokeWidth=2;sketch=1;curveFitting=1;jiggle=2;shadow=0;fontFamily=Comic Sans MS;" parent="1" vertex="1">
          <mxGeometry x="558" y="750" width="82" height="20" as="geometry" />
        </mxCell>
        <mxCell id="V7NbF9Kxz37buIu2_OVp-66" style="edgeStyle=orthogonalEdgeStyle;rounded=0;orthogonalLoop=1;jettySize=auto;html=1;exitX=0.5;exitY=1;exitDx=0;exitDy=0;fontSize=14;strokeWidth=2;sketch=1;curveFitting=1;jiggle=2;shadow=0;fontFamily=Comic Sans MS;" parent="1" source="V7NbF9Kxz37buIu2_OVp-65" target="V7NbF9Kxz37buIu2_OVp-65" edge="1">
          <mxGeometry relative="1" as="geometry" />
        </mxCell>
        <mxCell id="V7NbF9Kxz37buIu2_OVp-67" value="" style="endArrow=classic;html=1;rounded=0;exitX=0;exitY=1;exitDx=0;exitDy=0;curved=1;entryX=0.5;entryY=1;entryDx=0;entryDy=0;fontSize=14;strokeWidth=2;sketch=1;curveFitting=1;jiggle=2;shadow=0;fontFamily=Comic Sans MS;strokeColor=#004DFF;" parent="1" source="V7NbF9Kxz37buIu2_OVp-62" target="V7NbF9Kxz37buIu2_OVp-62" edge="1">
          <mxGeometry width="50" height="50" relative="1" as="geometry">
            <mxPoint x="669.9999999999998" y="632.6800000000001" as="sourcePoint" />
            <mxPoint x="687.6776695296628" y="640.0023304703375" as="targetPoint" />
            <Array as="points">
              <mxPoint x="620" y="660" />
            </Array>
          </mxGeometry>
        </mxCell>
        <mxCell id="V7NbF9Kxz37buIu2_OVp-68" value="any(not &quot;)" style="text;strokeColor=none;align=left;fillColor=none;html=1;verticalAlign=middle;whiteSpace=wrap;rounded=0;fontColor=#004DFF;labelBackgroundColor=default;fontSize=14;strokeWidth=2;sketch=1;curveFitting=1;jiggle=2;shadow=0;fontFamily=Comic Sans MS;" parent="1" vertex="1">
          <mxGeometry x="640" y="630" width="70" height="20" as="geometry" />
        </mxCell>
        <mxCell id="V7NbF9Kxz37buIu2_OVp-70" value="" style="endArrow=classic;html=1;rounded=0;exitX=1;exitY=0;exitDx=0;exitDy=0;curved=1;entryX=0;entryY=0;entryDx=0;entryDy=0;fontSize=14;strokeWidth=2;sketch=1;curveFitting=1;jiggle=2;shadow=0;fontFamily=Comic Sans MS;strokeColor=#004DFF;" parent="1" source="V7NbF9Kxz37buIu2_OVp-55" target="V7NbF9Kxz37buIu2_OVp-62" edge="1">
          <mxGeometry width="50" height="50" relative="1" as="geometry">
            <mxPoint x="614" y="563" as="sourcePoint" />
            <mxPoint x="637" y="620" as="targetPoint" />
            <Array as="points">
              <mxPoint x="600" y="520" />
            </Array>
          </mxGeometry>
        </mxCell>
        <mxCell id="V7NbF9Kxz37buIu2_OVp-71" value="&quot;" style="text;strokeColor=none;align=left;fillColor=none;html=1;verticalAlign=middle;whiteSpace=wrap;rounded=0;fontColor=#004DFF;labelBackgroundColor=default;fontSize=14;strokeWidth=2;sketch=1;curveFitting=1;jiggle=2;shadow=0;fontFamily=Comic Sans MS;" parent="1" vertex="1">
          <mxGeometry x="564" y="548" width="40" height="20" as="geometry" />
        </mxCell>
        <mxCell id="V7NbF9Kxz37buIu2_OVp-73" value="&#39;" style="text;strokeColor=none;align=left;fillColor=none;html=1;verticalAlign=middle;whiteSpace=wrap;rounded=0;fontColor=#004DFF;labelBackgroundColor=default;fontSize=14;strokeWidth=2;sketch=1;curveFitting=1;jiggle=2;shadow=0;fontFamily=Comic Sans MS;" parent="1" vertex="1">
          <mxGeometry x="510" y="650" width="40" height="20" as="geometry" />
        </mxCell>
        <mxCell id="V7NbF9Kxz37buIu2_OVp-76" value="" style="curved=1;endArrow=classic;html=1;rounded=0;exitX=1;exitY=0;exitDx=0;exitDy=0;entryX=1;entryY=1;entryDx=0;entryDy=0;fontSize=14;strokeWidth=2;sketch=1;curveFitting=1;jiggle=2;shadow=0;fontFamily=Comic Sans MS;strokeColor=#004DFF;" parent="1" source="V7NbF9Kxz37buIu2_OVp-62" target="V7NbF9Kxz37buIu2_OVp-6" edge="1">
          <mxGeometry width="50" height="50" relative="1" as="geometry">
            <mxPoint x="750" y="610" as="sourcePoint" />
            <mxPoint x="660" y="480" as="targetPoint" />
            <Array as="points">
              <mxPoint x="720" y="480" />
              <mxPoint x="560" y="390" />
            </Array>
          </mxGeometry>
        </mxCell>
        <mxCell id="V7NbF9Kxz37buIu2_OVp-80" value="" style="endArrow=none;html=1;rounded=0;exitX=1;exitY=0.5;exitDx=0;exitDy=0;curved=1;fontSize=14;strokeWidth=2;sketch=1;curveFitting=1;jiggle=2;shadow=0;fontFamily=Comic Sans MS;strokeColor=#004DFF;" parent="1" edge="1">
          <mxGeometry width="50" height="50" relative="1" as="geometry">
            <mxPoint x="603" y="695" as="sourcePoint" />
            <mxPoint x="673" y="460" as="targetPoint" />
            <Array as="points">
              <mxPoint x="713" y="710" />
              <mxPoint x="773" y="530" />
            </Array>
          </mxGeometry>
        </mxCell>
        <mxCell id="V7NbF9Kxz37buIu2_OVp-79" value="&quot;" style="text;strokeColor=none;align=left;fillColor=none;html=1;verticalAlign=middle;whiteSpace=wrap;rounded=0;fontColor=#004DFF;labelBackgroundColor=default;fontSize=14;strokeWidth=2;sketch=1;curveFitting=1;jiggle=2;shadow=0;fontFamily=Comic Sans MS;" parent="1" vertex="1">
          <mxGeometry x="692" y="527" width="40" height="20" as="geometry" />
        </mxCell>
        <mxCell id="V7NbF9Kxz37buIu2_OVp-81" value="&#39;" style="text;strokeColor=none;align=left;fillColor=none;html=1;verticalAlign=middle;whiteSpace=wrap;rounded=0;fontColor=#004DFF;labelBackgroundColor=default;fontSize=14;strokeWidth=2;sketch=1;curveFitting=1;jiggle=2;shadow=0;fontFamily=Comic Sans MS;" parent="1" vertex="1">
          <mxGeometry x="608" y="695" width="40" height="20" as="geometry" />
        </mxCell>
        <mxCell id="V7NbF9Kxz37buIu2_OVp-86" value="quotes" style="text;strokeColor=none;align=left;fillColor=none;html=1;verticalAlign=middle;whiteSpace=wrap;rounded=0;fontColor=#000000;labelBackgroundColor=default;fontSize=14;strokeWidth=2;sketch=1;curveFitting=1;jiggle=2;shadow=0;fontFamily=Comic Sans MS;" parent="1" vertex="1">
          <mxGeometry x="424" y="500" width="26" height="20" as="geometry" />
        </mxCell>
        <mxCell id="V7NbF9Kxz37buIu2_OVp-89" value="&lt;font style=&quot;font-size: 30px;&quot;&gt;&lt;b&gt;&amp;lt;Tokenize Automata&amp;gt;&lt;/b&gt;&lt;/font&gt;" style="text;strokeColor=none;align=center;fillColor=none;html=1;verticalAlign=middle;whiteSpace=wrap;rounded=0;fontColor=#000000;labelBackgroundColor=none;fontSize=14;strokeWidth=2;sketch=1;curveFitting=1;jiggle=2;shadow=0;fontStyle=0;fontFamily=Comic Sans MS;labelBorderColor=none;" parent="1" vertex="1">
          <mxGeometry x="205" y="240" width="440" height="20" as="geometry" />
        </mxCell>
        <mxCell id="V7NbF9Kxz37buIu2_OVp-91" value="&lt;b&gt;start&lt;/b&gt;" style="text;strokeColor=none;align=left;fillColor=none;html=1;verticalAlign=middle;whiteSpace=wrap;rounded=0;fontColor=#000000;fontSize=14;strokeWidth=2;sketch=1;curveFitting=1;jiggle=2;shadow=0;fontFamily=Comic Sans MS;" parent="1" vertex="1">
          <mxGeometry x="99" y="507" width="50" height="20" as="geometry" />
        </mxCell>
        <mxCell id="V7NbF9Kxz37buIu2_OVp-92" value="* Blue: consume one character" style="text;strokeColor=none;align=left;fillColor=none;html=1;verticalAlign=middle;whiteSpace=wrap;rounded=0;fontColor=#004DFF;labelBackgroundColor=none;fontSize=14;strokeWidth=2;sketch=1;curveFitting=1;jiggle=2;shadow=0;fontFamily=Comic Sans MS;" parent="1" vertex="1">
          <mxGeometry x="550" y="840" width="210.5" height="20" as="geometry" />
        </mxCell>
        <mxCell id="V7NbF9Kxz37buIu2_OVp-95" value="" style="curved=1;endArrow=classic;html=1;rounded=0;exitX=0;exitY=0;exitDx=0;exitDy=0;entryX=0.033;entryY=0.295;entryDx=0;entryDy=0;fontSize=14;strokeWidth=2;sketch=1;curveFitting=1;jiggle=2;shadow=0;fontFamily=Comic Sans MS;entryPerimeter=0;strokeColor=#004DFF;" parent="1" source="V7NbF9Kxz37buIu2_OVp-1" target="V7NbF9Kxz37buIu2_OVp-1" edge="1">
          <mxGeometry width="50" height="50" relative="1" as="geometry">
            <mxPoint x="200" y="440" as="sourcePoint" />
            <mxPoint x="188" y="412" as="targetPoint" />
            <Array as="points">
              <mxPoint x="230" y="420" />
              <mxPoint x="190" y="440" />
            </Array>
          </mxGeometry>
        </mxCell>
        <mxCell id="V7NbF9Kxz37buIu2_OVp-96" value="space" style="text;strokeColor=none;align=left;fillColor=none;html=1;verticalAlign=middle;whiteSpace=wrap;rounded=0;fontColor=#004DFF;labelBackgroundColor=default;fontSize=14;strokeWidth=2;sketch=1;curveFitting=1;jiggle=2;shadow=0;fontFamily=Comic Sans MS;" parent="1" vertex="1">
          <mxGeometry x="161" y="420" width="44" height="20" as="geometry" />
        </mxCell>
      </root>
    </mxGraphModel>
  </diagram>
</mxfile>
